<?xml version="1.0" encoding="UTF-8"?>
<svg fill="white" width="700pt" height="700pt" version="1.1" viewBox="0 0 700 700" xmlns="http://www.w3.org/2000/svg" xmlns:xlink="http://www.w3.org/1999/xlink">
 <g>
  <path d="m350 33.695c-79.91 0-145.6 62.312-145.6 151.2 0 34.695 19.234 79.949 30.801 105.35l104.65 229.6 0.003906-0.003906c1.8398 3.9453 5.7969 6.4648 10.148 6.4648s8.3086-2.5195 10.148-6.4648l104.65-229.6c11.566-25.402 30.801-70.652 30.801-105.35 0-88.887-65.691-151.2-145.6-151.2zm0 78.398c37.113 0 67.199 30.086 67.199 67.199s-30.086 67.199-67.199 67.199-67.199-30.086-67.199-67.199 30.086-67.199 67.199-67.199z"/>
 </g>
</svg>
