<?xml version="1.0" encoding="UTF-8"?>
<svg fill="#117baf" width="700pt" height="700" version="1.1" viewBox="0 0 700 700" xmlns="http://www.w3.org/2000/svg" xmlns:xlink="http://www.w3.org/1999/xlink">
 <g>
  <path d="m350 268.8c51.52 0 93.52-42 93.52-93.52s-42-92.961-93.52-92.961-93.52 42-93.52 93.52c0 51.52 42 92.961 93.52 92.961z"/>
  <path d="m350 287.28c-81.199 0-146.16 44.801-169.68 117.04-5.6016 17.359-2.8008 35.281 7.8398 49.84s27.441 23.52 45.359 23.52h232.4c18.48 0 34.719-8.3984 45.359-23.52 10.641-14.559 13.441-33.039 7.8398-49.84-22.957-71.68-87.918-117.04-169.12-117.04z"/>
 </g>
</svg>
